<?xml version="1.0" encoding="UTF-8" standalone="no"?>
<!-- Created with Inkscape (http://www.inkscape.org/) -->

<svg
   xmlns:dc="http://purl.org/dc/elements/1.1/"
   xmlns:cc="http://creativecommons.org/ns#"
   xmlns:rdf="http://www.w3.org/1999/02/22-rdf-syntax-ns#"
   xmlns:svg="http://www.w3.org/2000/svg"
   xmlns="http://www.w3.org/2000/svg"
   xmlns:sodipodi="http://sodipodi.sourceforge.net/DTD/sodipodi-0.dtd"
   xmlns:inkscape="http://www.inkscape.org/namespaces/inkscape"
   width="360"
   height="360"
   viewBox="0 0 95.249999 95.250003"
   version="1.1"
   id="svg8"
   inkscape:version="0.92.3 (2405546, 2018-03-11)"
   sodipodi:docname="logo.svg"
   inkscape:export-xdpi="19.200001"
   inkscape:export-ydpi="19.200001">
  <defs
     id="defs2" />
  <sodipodi:namedview
     id="base"
     pagecolor="#ffffff"
     bordercolor="#666666"
     borderopacity="1.0"
     inkscape:pageopacity="0.0"
     inkscape:pageshadow="2"
     inkscape:zoom="0.1767767"
     inkscape:cx="-1146.7761"
     inkscape:cy="386.35196"
     inkscape:document-units="px"
     inkscape:current-layer="layer1"
     showgrid="false"
     showborder="true"
     units="px"
     inkscape:snap-object-midpoints="true"
     inkscape:window-width="1366"
     inkscape:window-height="745"
     inkscape:window-x="-8"
     inkscape:window-y="-8"
     inkscape:window-maximized="1"
     fit-margin-top="0"
     fit-margin-left="0"
     fit-margin-right="0"
     fit-margin-bottom="0" />
  <metadata
     id="metadata5">
    <rdf:RDF>
      <cc:Work
         rdf:about="">
        <dc:format>image/svg+xml</dc:format>
        <dc:type
           rdf:resource="http://purl.org/dc/dcmitype/StillImage" />
        <dc:title />
      </cc:Work>
    </rdf:RDF>
  </metadata>
  <g
     inkscape:label="Layer 1"
     inkscape:groupmode="layer"
     id="layer1"
     transform="translate(419.45614,-161.93528)">
    <path
       inkscape:connector-curvature="0"
       style="opacity:1;vector-effect:none;fill:#731478;fill-opacity:1;stroke:none;stroke-width:2.64583325;stroke-linecap:butt;stroke-linejoin:round;stroke-miterlimit:4;stroke-dasharray:none;stroke-dashoffset:0;stroke-opacity:1"
       d="m -419.45614,161.93528 h 95.25 v 95.25 h -95.25 z"
       id="path960" />
    <path
       id="path962"
       style="opacity:1;vector-effect:none;fill:none;fill-opacity:1;stroke:#ffffff;stroke-width:2.64583325;stroke-linecap:butt;stroke-linejoin:round;stroke-miterlimit:4;stroke-dasharray:none;stroke-dashoffset:0;stroke-opacity:1"
       d="m -371.83114,204.26861 a 5.2916663,5.2916663 0 0 1 5.29166,5.29167 5.2916663,5.2916663 0 0 1 -5.29166,5.29167 5.2916663,5.2916663 0 0 1 -5.29167,-5.29167 5.2916663,5.2916663 0 0 1 5.29167,-5.29167 z m 0,-7.9375 a 39.687499,13.229167 0 0 0 -39.6875,13.22917 39.687499,13.229167 0 0 0 19.867,11.44736 13.229167,39.687499 30 0 1 4.82968,-11.44219 39.6875,13.229167 60 0 0 3.53415,6.60941 39.6875,13.229167 60 0 0 3.96565,6.37067 39.687499,13.229167 0 0 0 7.49102,0.24392 39.687499,13.229167 0 0 0 39.6875,-13.22917 39.687499,13.229167 0 0 0 -19.86701,-11.44736 13.229167,39.687499 30 0 1 -4.82968,11.44219 39.6875,13.229167 60 0 0 -3.53415,-6.60941 39.6875,13.229167 60 0 0 -3.96565,-6.37067 39.687499,13.229167 0 0 0 -7.49101,-0.24392 z"
       inkscape:connector-curvature="0" />
  </g>
</svg>
